<svg width="677" height="584" viewBox="0 0 677 584" fill="none" xmlns="http://www.w3.org/2000/svg">
<path d="M573.573 231.782L584.146 242.355H631.437" stroke="#090C10" stroke-miterlimit="10" stroke-linecap="round"/>
<path d="M294.088 315.992L410.448 490.414" stroke="#00FFFF" stroke-miterlimit="10"/>
<path d="M294.088 315.992L314.974 501.022" stroke="#00FFFF" stroke-miterlimit="10"/>
<path d="M294.088 315.992L487.231 369.351" stroke="#00FFFF" stroke-miterlimit="10"/>
<path d="M294.088 315.992L184.469 145.529" stroke="#00FFFF" stroke-miterlimit="10"/>
<path d="M294.088 315.992L132.156 259.213" stroke="#00FFFF" stroke-miterlimit="10"/>
<path d="M294.088 315.992L406.204 432.422" stroke="#00FFFF" stroke-miterlimit="10"/>
<path d="M238.621 443.647C168.119 413.014 135.799 331.028 166.433 260.526" stroke="#00FFFF" stroke-width="1.0365" stroke-miterlimit="10"/>
<path d="M349.554 188.337C420.056 218.97 452.375 300.956 421.742 371.458" stroke="#00FFFF" stroke-width="1.0365" stroke-miterlimit="10"/>
<path d="M294.088 450.271C368.248 450.271 428.367 390.152 428.367 315.992C428.367 241.832 368.248 181.713 294.088 181.713C219.928 181.713 159.809 241.832 159.809 315.992C159.809 390.152 219.928 450.271 294.088 450.271Z" stroke="#090C10" stroke-width="3" stroke-miterlimit="10" stroke-linecap="round"/>
<path d="M294.088 443.826C364.688 443.826 421.922 386.593 421.922 315.992C421.922 245.391 364.688 188.158 294.088 188.158C223.487 188.158 166.254 245.391 166.254 315.992C166.254 386.593 223.487 443.826 294.088 443.826Z" fill="url(#paint0_radial_38_245)"/>
<path d="M294.088 419.013C350.985 419.013 397.109 372.889 397.109 315.992C397.109 259.095 350.985 212.971 294.088 212.971C237.191 212.971 191.067 259.095 191.067 315.992C191.067 372.889 237.191 419.013 294.088 419.013Z" stroke="#C8CACC" stroke-width="12" stroke-miterlimit="10" stroke-linecap="round"/>
<path d="M294.088 232.981C339.86 232.981 377.099 270.219 377.099 315.992C377.099 361.765 339.861 399.003 294.088 399.003C248.316 399.003 211.077 361.765 211.077 315.992C211.077 270.219 248.315 232.981 294.088 232.981ZM294.088 232.231C247.828 232.231 210.327 269.732 210.327 315.992C210.327 362.252 247.828 399.753 294.088 399.753C340.348 399.753 377.849 362.252 377.849 315.992C377.849 269.732 340.347 232.231 294.088 232.231Z" fill="#C8CACC"/>
<path d="M294.088 230.301C341.338 230.301 379.779 268.742 379.779 315.992C379.779 363.242 341.338 401.683 294.088 401.683C246.838 401.683 208.397 363.242 208.397 315.992C208.397 268.742 246.837 230.301 294.088 230.301ZM294.088 229.526C246.334 229.526 207.622 268.238 207.622 315.992C207.622 363.746 246.334 402.458 294.088 402.458C341.842 402.458 380.554 363.746 380.554 315.992C380.554 268.238 341.841 229.526 294.088 229.526Z" fill="#C8CACC"/>
<path d="M294.088 240.378C335.782 240.378 369.702 274.298 369.702 315.992C369.702 357.686 335.782 391.606 294.088 391.606C252.395 391.606 218.474 357.686 218.474 315.992C218.474 274.298 252.394 240.378 294.088 240.378ZM294.088 239.695C251.95 239.695 217.791 273.854 217.791 315.992C217.791 358.13 251.95 392.289 294.088 392.289C336.226 392.289 370.385 358.13 370.385 315.992C370.385 273.854 336.225 239.695 294.088 239.695Z" fill="#4C0099"/>
<path d="M294.088 443.848C364.701 443.848 421.944 386.605 421.944 315.992C421.944 245.379 364.701 188.136 294.088 188.136C223.475 188.136 166.232 245.379 166.232 315.992C166.232 386.605 223.475 443.848 294.088 443.848Z" stroke="#00FFFF" stroke-miterlimit="10"/>
<path d="M408.906 64.536L391.947 81.495V166.272L363.106 195.112" stroke="#00FFFF" stroke-width="2" stroke-miterlimit="10"/>
<path d="M433.307 317.148L519.48 230.974H612.066L676.071 166.969V65.992" stroke="#090C10" stroke-miterlimit="10" stroke-linecap="round"/>
<path d="M409.846 238.683L449.608 198.92V177.209L519.026 107.792V65.992" stroke="#00FFFF" stroke-width="2" stroke-miterlimit="10"/>
<path d="M418.003 252.603L508.237 162.368H543.195L618.38 87.183V65.992" stroke="#090C10" stroke-miterlimit="10" stroke-dasharray="9 1"/>
<path d="M390.524 193.255L432.724 151.055V69.219L501.942 0" stroke="#00FFFF" stroke-width="3" stroke-miterlimit="10" stroke-linecap="round"/>
<path d="M316.798 183.626L351.159 149.265V112.905" stroke="#00FFFF" stroke-width="2" stroke-miterlimit="10" stroke-linecap="round"/>
<path d="M276.855 182.781L302.815 156.82V127.729" stroke="#00FFFF" stroke-miterlimit="10"/>
<path d="M190.065 408.507L132.181 466.39V565.992" stroke="#090C10" stroke-width="2" stroke-miterlimit="10" stroke-linecap="round"/>
<path d="M294.088 443.848V468.98L223.081 539.987H192.309L160.716 571.58" stroke="#090C10" stroke-width="2" stroke-miterlimit="10" stroke-linecap="round"/>
<path d="M154.868 325.048H124.593L58.0917 391.549H19.5817" stroke="#090C10" stroke-width="2" stroke-miterlimit="10" stroke-linecap="round"/>
<path d="M162.074 360.086L112.754 409.406V441.307L27.9777 526.083" stroke="#00FFFF" stroke-width="2" stroke-miterlimit="10"/>
<path d="M188.079 406.226L73.2247 521.08V532.054L31.2427 574.036" stroke="#00FFFF" stroke-miterlimit="10"/>
<path d="M231.941 440.534L195.025 477.451V488.646L141.005 542.665V565.992" stroke="#00FFFF" stroke-width="2" stroke-miterlimit="10"/>
<path d="M487.231 371.919C488.649 371.919 489.799 370.769 489.799 369.351C489.799 367.933 488.649 366.783 487.231 366.783C485.813 366.783 484.663 367.933 484.663 369.351C484.663 370.769 485.813 371.919 487.231 371.919Z" fill="#00FFFF" stroke="#00FFFF" stroke-miterlimit="10"/>
<path d="M408.365 432.422C408.365 433.615 407.398 434.582 406.205 434.582C405.012 434.582 404.045 433.615 404.045 432.422C404.045 431.229 405.012 430.262 406.205 430.262C407.397 430.262 408.365 431.229 408.365 432.422Z" fill="#00FFFF" stroke="#00FFFF" stroke-miterlimit="10"/>
<path d="M412.123 490.414C412.123 491.339 411.373 492.089 410.448 492.089C409.523 492.089 408.773 491.339 408.773 490.414C408.773 489.489 409.523 488.739 410.448 488.739C411.373 488.739 412.123 489.489 412.123 490.414Z" fill="#00FFFF" stroke="#00FFFF" stroke-miterlimit="10"/>
<path d="M316.605 501.022C316.605 501.923 315.875 502.654 314.973 502.654C314.072 502.654 313.341 501.924 313.341 501.022C313.341 500.121 314.072 499.39 314.973 499.39C315.875 499.39 316.605 500.121 316.605 501.022Z" fill="#00FFFF" stroke="#00FFFF" stroke-miterlimit="10"/>
<path d="M132.156 261.486C133.411 261.486 134.429 260.468 134.429 259.213C134.429 257.958 133.411 256.94 132.156 256.94C130.9 256.94 129.883 257.958 129.883 259.213C129.883 260.468 130.9 261.486 132.156 261.486Z" fill="#00FFFF" stroke="#00FFFF" stroke-miterlimit="10"/>
<path d="M186.499 145.529C186.499 146.65 185.59 147.559 184.468 147.559C183.347 147.559 182.438 146.65 182.438 145.529C182.438 144.408 183.347 143.498 184.468 143.498C185.59 143.498 186.499 144.407 186.499 145.529Z" fill="#00FFFF" stroke="#00FFFF" stroke-miterlimit="10"/>
<path d="M306.93 127.729C306.93 130.001 305.088 131.843 302.816 131.843C300.544 131.843 298.702 130.001 298.702 127.729C298.702 125.457 300.544 123.615 302.816 123.615C305.088 123.615 306.93 125.457 306.93 127.729Z" fill="#00FFFF" stroke="#00FFFF" stroke-miterlimit="10"/>
<path d="M541.452 243.866L499.512 285.806H483.57L525.51 243.866H541.452ZM546.28 241.866H524.682L478.742 287.806H500.34L546.28 241.866Z" fill="#00FFFF"/>
<path fill-rule="evenodd" clip-rule="evenodd" d="M622.539 198.48L597.992 223.028H609.533L634.08 198.48H622.539Z" fill="#00FFFF"/>
<path fill-rule="evenodd" clip-rule="evenodd" d="M103.397 436.581L51.7397 488.238V476.697L103.397 425.04V436.581Z" fill="#00FFFF"/>
<path fill-rule="evenodd" clip-rule="evenodd" d="M204.707 480.434L216.274 468.867V480.408L204.707 491.975V480.434Z" fill="#00FFFF"/>
<path fill-rule="evenodd" clip-rule="evenodd" d="M204.707 502.38L216.274 490.813V502.354L204.707 513.922V502.38Z" fill="#00FFFF"/>
<path fill-rule="evenodd" clip-rule="evenodd" d="M204.707 524.327L216.274 512.76V524.301L204.707 535.868V524.327Z" fill="#00FFFF"/>
<path fill-rule="evenodd" clip-rule="evenodd" d="M534.637 135.409L519.204 150.842H526.46L541.893 135.409H534.637Z" fill="#00FFFF"/>
<path d="M330.32 279.76C310.309 259.749 277.866 259.749 257.855 279.76L330.32 352.225C350.331 332.214 350.331 299.77 330.32 279.76Z" fill="url(#paint1_radial_38_245)"/>
<path d="M257.855 352.224C277.866 372.235 310.309 372.235 330.32 352.224L257.855 279.759C237.844 299.77 237.844 332.214 257.855 352.224Z" fill="url(#paint2_radial_38_245)"/>
<path d="M280.092 301.996C272.362 309.726 272.362 322.258 280.092 329.987L308.084 301.996C300.354 294.267 287.821 294.267 280.092 301.996Z" fill="#090C10"/>
<path d="M308.083 329.988C315.813 322.258 315.813 309.726 308.083 301.997L280.091 329.988C287.821 337.717 300.354 337.717 308.083 329.988Z" fill="#F4F7F9"/>
<path d="M644.912 138.793L577.846 205.859C575.801 207.904 572.455 207.904 570.411 205.859C568.366 203.814 568.366 200.468 570.411 198.424L637.477 131.358C639.522 129.313 642.868 129.313 644.912 131.358C646.957 133.403 646.957 136.749 644.912 138.793Z" fill="#F4F7F9"/>
<path d="M76.0347 402.607L8.96875 469.673C6.92375 471.718 3.57775 471.718 1.53375 469.673C-0.51125 467.628 -0.51125 464.282 1.53375 462.237L68.5997 395.171C70.6447 393.126 73.9908 393.126 76.0358 395.171C78.0798 397.216 78.0797 400.562 76.0347 402.607Z" fill="#F4F7F9"/>
<path d="M443.485 265.006L509.034 199.457" stroke="#090C10" stroke-width="11.3927" stroke-miterlimit="10" stroke-dasharray="8.54 8.54"/>
<path d="M114.039 314.005L54.6157 373.429H31.2427" stroke="#00FFFF" stroke-miterlimit="10"/>
<path d="M266.196 490.498L289.965 466.729" stroke="#00FFFF" stroke-miterlimit="10"/>
<path d="M219.747 533.683L238.486 514.945" stroke="#00FFFF" stroke-miterlimit="10"/>
<path d="M114.039 316.003C115.142 316.003 116.037 315.108 116.037 314.005C116.037 312.902 115.142 312.007 114.039 312.007C112.935 312.007 112.041 312.902 112.041 314.005C112.041 315.108 112.935 316.003 114.039 316.003Z" fill="#00FFFF" stroke="#00FFFF" stroke-miterlimit="10"/>
<path d="M98.5277 331.722C98.5277 332.94 97.5407 333.927 96.3227 333.927C95.1047 333.927 94.1177 332.94 94.1177 331.722C94.1177 330.504 95.1047 329.517 96.3227 329.517C97.5397 329.517 98.5277 330.504 98.5277 331.722Z" fill="#00FFFF" stroke="#00FFFF" stroke-miterlimit="10"/>
<path d="M56.8608 373.07C56.8608 374.31 55.8558 375.315 54.6148 375.315C53.3748 375.315 52.3698 374.31 52.3698 373.07C52.3698 371.83 53.3748 370.824 54.6148 370.824C55.8558 370.824 56.8608 371.83 56.8608 373.07Z" fill="#00FFFF" stroke="#00FFFF" stroke-miterlimit="10"/>
<path d="M127.357 325.048C127.357 326.575 126.119 327.812 124.593 327.812C123.066 327.812 121.829 326.574 121.829 325.048C121.829 323.521 123.066 322.284 124.593 322.284C126.12 322.284 127.357 323.522 127.357 325.048Z" fill="#00FFFF" stroke="#00FFFF" stroke-miterlimit="10"/>
<path d="M116.478 409.406C116.478 411.463 114.811 413.13 112.754 413.13C110.697 413.13 109.03 411.463 109.03 409.406C109.03 407.349 110.697 405.682 112.754 405.682C114.811 405.682 116.478 407.349 116.478 409.406Z" fill="#00FFFF" stroke="#00FFFF" stroke-miterlimit="10"/>
<path d="M112.754 444.462C114.496 444.462 115.909 443.049 115.909 441.307C115.909 439.565 114.496 438.152 112.754 438.152C111.011 438.152 109.599 439.565 109.599 441.307C109.599 443.049 111.011 444.462 112.754 444.462Z" fill="#00FFFF" stroke="#00FFFF" stroke-miterlimit="10"/>
<path d="M75.3157 521.08C75.3157 522.235 74.3797 523.171 73.2247 523.171C72.0697 523.171 71.1337 522.235 71.1337 521.08C71.1337 519.925 72.0697 518.989 73.2247 518.989C74.3797 518.989 75.3157 519.925 75.3157 521.08Z" fill="#00FFFF" stroke="#00FFFF" stroke-miterlimit="10"/>
<path d="M74.9317 532.054C74.9317 532.996 74.1677 533.76 73.2257 533.76C72.2837 533.76 71.5197 532.996 71.5197 532.054C71.5197 531.112 72.2837 530.348 73.2257 530.348C74.1677 530.348 74.9317 531.112 74.9317 532.054Z" fill="#00FFFF" stroke="#00FFFF" stroke-miterlimit="10"/>
<path d="M134.206 508.458C134.206 509.576 133.299 510.483 132.181 510.483C131.063 510.483 130.156 509.576 130.156 508.458C130.156 507.34 131.063 506.433 132.181 506.433C133.299 506.433 134.206 507.34 134.206 508.458Z" fill="#00FFFF" stroke="#00FFFF" stroke-miterlimit="10"/>
<path d="M195.025 479.239C196.012 479.239 196.813 478.438 196.813 477.451C196.813 476.464 196.012 475.663 195.025 475.663C194.037 475.663 193.237 476.464 193.237 477.451C193.237 478.438 194.037 479.239 195.025 479.239Z" fill="#00FFFF" stroke="#00FFFF" stroke-miterlimit="10"/>
<path d="M197.86 488.646C197.86 490.212 196.59 491.482 195.024 491.482C193.458 491.482 192.188 490.212 192.188 488.646C192.188 487.08 193.458 485.81 195.024 485.81C196.591 485.81 197.86 487.08 197.86 488.646Z" fill="#00FFFF" stroke="#00FFFF" stroke-miterlimit="10"/>
<path d="M144.579 542.665C144.579 544.638 142.979 546.238 141.006 546.238C139.033 546.238 137.433 544.638 137.433 542.665C137.433 540.692 139.033 539.092 141.006 539.092C142.979 539.092 144.579 540.692 144.579 542.665Z" fill="#00FFFF" stroke="#00FFFF" stroke-miterlimit="10"/>
<path d="M195.025 539.987C195.025 541.487 193.809 542.702 192.31 542.702C190.81 542.702 189.595 541.486 189.595 539.987C189.595 538.487 190.811 537.272 192.31 537.272C193.809 537.272 195.025 538.487 195.025 539.987Z" fill="#00FFFF" stroke="#00FFFF" stroke-miterlimit="10"/>
<path d="M188.07 407.501C188.777 407.501 189.351 406.927 189.351 406.22C189.351 405.512 188.777 404.939 188.07 404.939C187.362 404.939 186.789 405.512 186.789 406.22C186.789 406.927 187.362 407.501 188.07 407.501Z" fill="#00FFFF" stroke="#00FFFF" stroke-miterlimit="10"/>
<path d="M164.466 360.086C164.466 361.407 163.395 362.479 162.073 362.479C160.752 362.479 159.68 361.408 159.68 360.086C159.68 358.765 160.751 357.693 162.073 357.693C163.395 357.694 164.466 358.765 164.466 360.086Z" fill="#00FFFF" stroke="#00FFFF" stroke-miterlimit="10"/>
<path d="M156.901 325.048C156.901 326.005 156.126 326.78 155.169 326.78C154.213 326.78 153.437 326.005 153.437 325.048C153.437 324.091 154.213 323.316 155.169 323.316C156.126 323.316 156.901 324.092 156.901 325.048Z" fill="#00FFFF" stroke="#00FFFF" stroke-miterlimit="10"/>
<path d="M175.516 273.675C175.516 274.843 174.569 275.79 173.4 275.79C172.232 275.79 171.285 274.843 171.285 273.675C171.285 272.507 172.232 271.56 173.4 271.56C174.569 271.56 175.516 272.507 175.516 273.675Z" fill="#00FFFF" stroke="#00FFFF" stroke-miterlimit="10"/>
<path d="M170.352 285.347C171.278 285.347 172.029 284.596 172.029 283.67C172.029 282.744 171.278 281.993 170.352 281.993C169.426 281.993 168.675 282.744 168.675 283.67C168.675 284.596 169.426 285.347 170.352 285.347Z" fill="#00FFFF" stroke="#00FFFF" stroke-miterlimit="10"/>
<path d="M178.999 263.949C178.999 264.905 178.224 265.68 177.268 265.68C176.312 265.68 175.537 264.905 175.537 263.949C175.537 262.993 176.312 262.218 177.268 262.218C178.224 262.218 178.999 262.993 178.999 263.949Z" fill="#00FFFF" stroke="#00FFFF" stroke-miterlimit="10"/>
<path d="M226.469 208.286C226.469 209.139 225.777 209.831 224.924 209.831C224.071 209.831 223.379 209.139 223.379 208.286C223.379 207.433 224.071 206.741 224.924 206.741C225.777 206.741 226.469 207.433 226.469 208.286Z" fill="#00FFFF" stroke="#00FFFF" stroke-miterlimit="10"/>
<path d="M206.849 176.733C206.849 178.011 205.813 179.047 204.535 179.047C203.257 179.047 202.221 178.011 202.221 176.733C202.221 175.455 203.257 174.419 204.535 174.419C205.813 174.419 206.849 175.456 206.849 176.733Z" fill="#00FFFF" stroke="#00FFFF" stroke-miterlimit="10"/>
<path d="M365.234 194.984C365.234 196.088 364.339 196.983 363.235 196.983C362.131 196.983 361.236 196.088 361.236 194.984C361.236 193.88 362.131 192.985 363.235 192.985C364.339 192.985 365.234 193.88 365.234 194.984Z" fill="#00FFFF" stroke="#00FFFF" stroke-miterlimit="10"/>
<path d="M411.723 238.607C411.723 239.602 410.916 240.409 409.921 240.409C408.926 240.409 408.119 239.602 408.119 238.607C408.119 237.612 408.926 236.805 409.921 236.805C410.916 236.805 411.723 237.612 411.723 238.607Z" fill="#00FFFF" stroke="#00FFFF" stroke-miterlimit="10"/>
<path d="M419.646 252.603C419.646 253.511 418.91 254.246 418.003 254.246C417.095 254.246 416.36 253.51 416.36 252.603C416.36 251.695 417.096 250.96 418.003 250.96C418.91 250.959 419.646 251.695 419.646 252.603Z" fill="#00FFFF" stroke="#00FFFF" stroke-miterlimit="10"/>
<path d="M435.152 317.148C435.152 318.167 434.326 318.993 433.307 318.993C432.288 318.993 431.462 318.167 431.462 317.148C431.462 316.129 432.288 315.303 433.307 315.303C434.326 315.303 435.152 316.129 435.152 317.148Z" fill="#00FFFF" stroke="#00FFFF" stroke-miterlimit="10"/>
<path d="M430.116 353.06C430.116 354.083 429.286 354.913 428.263 354.913C427.24 354.913 426.41 354.083 426.41 353.06C426.41 352.037 427.24 351.207 428.263 351.207C429.286 351.207 430.116 352.037 430.116 353.06Z" fill="#00FFFF" stroke="#00FFFF" stroke-miterlimit="10"/>
<path d="M419.641 349.967C419.641 351.267 418.587 352.322 417.286 352.322C415.985 352.322 414.931 351.268 414.931 349.967C414.931 348.667 415.985 347.612 417.286 347.612C418.586 347.612 419.641 348.666 419.641 349.967Z" fill="#00FFFF" stroke="#00FFFF" stroke-miterlimit="10"/>
<path d="M385.075 408.059C385.075 409.336 384.04 410.372 382.762 410.372C381.485 410.372 380.45 409.337 380.45 408.059C380.45 406.782 381.485 405.747 382.762 405.747C384.04 405.747 385.075 406.782 385.075 408.059Z" fill="#00FFFF" stroke="#00FFFF" stroke-miterlimit="10"/>
<path d="M366.51 422.338C366.51 423.144 365.856 423.798 365.05 423.798C364.244 423.798 363.59 423.144 363.59 422.338C363.59 421.532 364.244 420.878 365.05 420.878C365.856 420.878 366.51 421.532 366.51 422.338Z" fill="#00FFFF" stroke="#00FFFF" stroke-miterlimit="10"/>
<path d="M308.402 444.139C309.015 444.139 309.512 443.642 309.512 443.029C309.512 442.416 309.015 441.919 308.402 441.919C307.789 441.919 307.292 442.416 307.292 443.029C307.292 443.642 307.789 444.139 308.402 444.139Z" fill="#00FFFF" stroke="#00FFFF" stroke-miterlimit="10"/>
<path d="M390.916 463.683C392.322 463.683 393.463 462.543 393.463 461.136C393.463 459.729 392.322 458.589 390.916 458.589C389.509 458.589 388.369 459.729 388.369 461.136C388.369 462.543 389.509 463.683 390.916 463.683Z" fill="#00FFFF" stroke="#00FFFF" stroke-miterlimit="10"/>
<path d="M465.374 362.817C465.374 363.809 464.57 364.612 463.579 364.612C462.588 364.612 461.784 363.808 461.784 362.817C461.784 361.826 462.588 361.022 463.579 361.022C464.57 361.021 465.374 361.825 465.374 362.817Z" fill="#00FFFF" stroke="#00FFFF" stroke-miterlimit="10"/>
<path d="M241.373 443.647C241.373 445.167 240.141 446.399 238.621 446.399C237.101 446.399 235.869 445.167 235.869 443.647C235.869 442.127 237.101 440.895 238.621 440.895C240.141 440.894 241.373 442.127 241.373 443.647Z" fill="#00FFFF" stroke="#00FFFF" stroke-miterlimit="10"/>
<path d="M231.941 442.55C233.054 442.55 233.957 441.647 233.957 440.534C233.957 439.421 233.054 438.518 231.941 438.518C230.827 438.518 229.925 439.421 229.925 440.534C229.925 441.647 230.827 442.55 231.941 442.55Z" fill="#00FFFF" stroke="#00FFFF" stroke-miterlimit="10"/>
<path d="M520.52 230.974C520.52 231.548 520.055 232.013 519.481 232.013C518.907 232.013 518.442 231.548 518.442 230.974C518.442 230.4 518.907 229.935 519.481 229.935C520.054 229.935 520.52 230.4 520.52 230.974Z" fill="#00FFFF" stroke="#00FFFF" stroke-miterlimit="10"/>
<path d="M632.246 139.647C632.246 141.336 630.877 142.705 629.188 142.705C627.499 142.705 626.13 141.336 626.13 139.647C626.13 137.958 627.499 136.589 629.188 136.589C630.877 136.589 632.246 137.958 632.246 139.647Z" fill="#00FFFF" stroke="#00FFFF" stroke-miterlimit="10"/>
<path d="M585.289 200.216C585.289 201.21 584.484 202.015 583.49 202.015C582.496 202.015 581.691 201.21 581.691 200.216C581.691 199.222 582.497 198.417 583.49 198.417C584.483 198.417 585.289 199.222 585.289 200.216Z" fill="#00FFFF" stroke="#00FFFF" stroke-miterlimit="10"/>
<path d="M510.175 162.043C510.175 163.217 509.223 164.168 508.05 164.168C506.876 164.168 505.925 163.217 505.925 162.043C505.925 160.869 506.877 159.918 508.05 159.918C509.223 159.917 510.175 160.869 510.175 162.043Z" fill="#00FFFF" stroke="#00FFFF" stroke-miterlimit="10"/>
<path d="M545.202 162.368C545.202 163.477 544.303 164.375 543.195 164.375C542.086 164.375 541.188 163.476 541.188 162.368C541.188 161.259 542.087 160.361 543.195 160.361C544.303 160.361 545.202 161.26 545.202 162.368Z" fill="#00FFFF" stroke="#00FFFF" stroke-miterlimit="10"/>
<path d="M449.608 180.079C451.193 180.079 452.478 178.794 452.478 177.209C452.478 175.624 451.193 174.339 449.608 174.339C448.023 174.339 446.738 175.624 446.738 177.209C446.738 178.794 448.023 180.079 449.608 180.079Z" fill="#00FFFF" stroke="#00FFFF" stroke-miterlimit="10"/>
<path d="M449.608 201.79C451.193 201.79 452.478 200.505 452.478 198.92C452.478 197.335 451.193 196.05 449.608 196.05C448.023 196.05 446.738 197.335 446.738 198.92C446.738 200.505 448.023 201.79 449.608 201.79Z" fill="#00FFFF" stroke="#00FFFF" stroke-miterlimit="10"/>
<path d="M395.081 166.272C395.081 164.541 393.678 163.138 391.947 163.138C390.216 163.138 388.813 164.541 388.813 166.272C388.813 168.003 390.216 169.406 391.947 169.406C393.678 169.406 395.081 168.003 395.081 166.272Z" fill="#00FFFF" stroke="#00FFFF" stroke-miterlimit="10"/>
<path d="M391.947 83.484C393.045 83.484 393.936 82.5935 393.936 81.495C393.936 80.3965 393.045 79.506 391.947 79.506C390.848 79.506 389.958 80.3965 389.958 81.495C389.958 82.5935 390.848 83.484 391.947 83.484Z" fill="#00FFFF" stroke="#00FFFF" stroke-miterlimit="10"/>
<path d="M304.381 156.82C304.381 155.955 303.68 155.254 302.815 155.254C301.95 155.254 301.25 155.955 301.25 156.82C301.25 157.685 301.951 158.385 302.815 158.385C303.68 158.386 304.381 157.685 304.381 156.82Z" fill="#00FFFF" stroke="#00FFFF" stroke-miterlimit="10"/>
<path d="M351.159 110.736C352.284 110.736 353.197 109.824 353.197 108.698C353.197 107.572 352.284 106.66 351.159 106.66C350.033 106.66 349.121 107.572 349.121 108.698C349.121 109.824 350.033 110.736 351.159 110.736Z" fill="#00FFFF" stroke="#00FFFF" stroke-miterlimit="10"/>
<path d="M538.149 200.49L586.075 152.564" stroke="#00FFFF" stroke-miterlimit="10"/>
<path d="M538.149 202.909C539.485 202.909 540.568 201.826 540.568 200.49C540.568 199.154 539.485 198.071 538.149 198.071C536.813 198.071 535.73 199.154 535.73 200.49C535.73 201.826 536.813 202.909 538.149 202.909Z" fill="#00FFFF" stroke="#00FFFF" stroke-miterlimit="10"/>
<path d="M586.075 154.488C587.137 154.488 587.999 153.627 587.999 152.564C587.999 151.501 587.137 150.64 586.075 150.64C585.012 150.64 584.151 151.501 584.151 152.564C584.151 153.627 585.012 154.488 586.075 154.488Z" fill="#00FFFF" stroke="#00FFFF" stroke-miterlimit="10"/>
<path d="M107.887 468.178L155.813 420.252" stroke="#00FFFF" stroke-miterlimit="10"/>
<path d="M110.306 468.178C110.306 466.842 109.223 465.759 107.887 465.759C106.551 465.759 105.468 466.842 105.468 468.178C105.468 469.514 106.551 470.597 107.887 470.597C109.223 470.596 110.306 469.514 110.306 468.178Z" fill="#00FFFF" stroke="#00FFFF" stroke-miterlimit="10"/>
<path d="M155.813 422.176C156.875 422.176 157.737 421.315 157.737 420.252C157.737 419.189 156.875 418.328 155.813 418.328C154.75 418.328 153.889 419.189 153.889 420.252C153.889 421.315 154.75 422.176 155.813 422.176Z" fill="#00FFFF" stroke="#00FFFF" stroke-miterlimit="10"/>
<path d="M53.8528 580.198L101.779 532.272" stroke="#00FFFF" stroke-miterlimit="10"/>
<path d="M56.2718 580.198C56.2718 578.862 55.1888 577.779 53.8528 577.779C52.5168 577.779 51.4338 578.862 51.4338 580.198C51.4338 581.534 52.5168 582.617 53.8528 582.617C55.1888 582.617 56.2718 581.534 56.2718 580.198Z" fill="#00FFFF" stroke="#00FFFF" stroke-miterlimit="10"/>
<path d="M101.779 534.196C102.841 534.196 103.703 533.335 103.703 532.272C103.703 531.209 102.841 530.348 101.779 530.348C100.716 530.348 99.8548 531.209 99.8548 532.272C99.8548 533.335 100.716 534.196 101.779 534.196Z" fill="#00FFFF" stroke="#00FFFF" stroke-miterlimit="10"/>
<path d="M196.207 544.001L207.847 555.641" stroke="#090C10" stroke-width="2" stroke-miterlimit="10" stroke-linecap="round"/>
<path d="M193.733 476.218L176.758 459.242H168.009" stroke="#00FFFF" stroke-width="0.5" stroke-miterlimit="10"/>
<path d="M166.622 460.63C167.388 460.63 168.01 460.009 168.01 459.242C168.01 458.475 167.388 457.854 166.622 457.854C165.855 457.854 165.234 458.475 165.234 459.242C165.234 460.009 165.855 460.63 166.622 460.63Z" stroke="#00FFFF" stroke-width="0.5" stroke-miterlimit="10"/>
<path d="M162.103 459.242C162.103 460.008 161.482 460.63 160.715 460.63C159.949 460.63 159.327 460.009 159.327 459.242C159.327 458.476 159.948 457.854 160.715 457.854C161.482 457.855 162.103 458.476 162.103 459.242Z" stroke="#00FFFF" stroke-width="0.5" stroke-miterlimit="10"/>
<path d="M195.025 491.482V514.801" stroke="#00FFFF" stroke-width="0.75" stroke-miterlimit="10"/>
<path d="M195.025 518.059C195.977 518.059 196.75 517.287 196.75 516.334C196.75 515.381 195.977 514.609 195.025 514.609C194.072 514.609 193.3 515.381 193.3 516.334C193.3 517.287 194.072 518.059 195.025 518.059Z" stroke="#00FFFF" stroke-width="0.75" stroke-miterlimit="10"/>
<path d="M128.15 394.01L114.839 380.699H95.6417" stroke="#00FFFF" stroke-width="0.75" stroke-miterlimit="10"/>
<path d="M131.85 394.01C131.85 396.053 130.194 397.71 128.15 397.71C126.107 397.71 124.45 396.053 124.45 394.01C124.45 391.967 126.106 390.31 128.15 390.31C130.194 390.31 131.85 391.966 131.85 394.01Z" stroke="#00FFFF" stroke-width="0.75" stroke-miterlimit="10"/>
<path d="M95.6418 380.699C95.6418 381.59 94.9198 382.312 94.0288 382.312C93.1378 382.312 92.4158 381.59 92.4158 380.699C92.4158 379.808 93.1378 379.086 94.0288 379.086C94.9188 379.085 95.6418 379.808 95.6418 380.699Z" stroke="#00FFFF" stroke-width="0.75" stroke-miterlimit="10"/>
<path d="M116.629 380.699C116.629 381.688 115.828 382.489 114.839 382.489C113.851 382.489 113.049 381.688 113.049 380.699C113.049 379.71 113.85 378.909 114.839 378.909C115.828 378.909 116.629 379.71 116.629 380.699Z" fill="#00FFFF" stroke="#00FFFF" stroke-miterlimit="10"/>
<path d="M519.026 107.792H551.584L595.525 63.85" stroke="#090C10" stroke-miterlimit="10"/>
<path d="M436.593 102.715H458.318L499.311 61.722" stroke="#00FFFF" stroke-miterlimit="10"/>
<path fill-rule="evenodd" clip-rule="evenodd" d="M441.326 104.66H424.121C423.051 104.66 422.176 103.785 422.176 102.715C422.176 101.645 423.051 100.77 424.121 100.77H441.326C442.396 100.77 443.271 101.645 443.271 102.715C443.272 103.785 442.396 104.66 441.326 104.66Z" fill="#00FFFF" stroke="#00FFFF" stroke-miterlimit="10"/>
<path d="M386.339 136.175L403.65 118.864" stroke="#00FFFF" stroke-miterlimit="10"/>
<path d="M381.026 119.312L409.545 147.831" stroke="#00FFFF" stroke-miterlimit="10"/>
<path d="M394.323 130.448C394.323 131.75 393.268 132.805 391.966 132.805C390.664 132.805 389.608 131.75 389.608 130.448C389.608 129.146 390.664 128.09 391.966 128.09C393.268 128.09 394.323 129.146 394.323 130.448Z" fill="#00FFFF" stroke="#00FFFF" stroke-miterlimit="10"/>
<path d="M411.908 148.707C411.908 149.481 411.28 150.109 410.506 150.109C409.732 150.109 409.104 149.481 409.104 148.707C409.104 147.933 409.732 147.305 410.506 147.305C411.28 147.305 411.908 147.932 411.908 148.707Z" fill="#00FFFF" stroke="#00FFFF" stroke-miterlimit="10"/>
<path d="M380.043 119.854C380.914 119.854 381.62 119.148 381.62 118.277C381.62 117.406 380.914 116.7 380.043 116.7C379.172 116.7 378.466 117.406 378.466 118.277C378.466 119.148 379.172 119.854 380.043 119.854Z" fill="#00FFFF" stroke="#00FFFF" stroke-miterlimit="10"/>
<path d="M408.033 117.162C408.033 115.749 406.888 114.604 405.475 114.604C404.062 114.604 402.917 115.749 402.917 117.162C402.917 118.575 404.062 119.72 405.475 119.72C406.888 119.72 408.033 118.575 408.033 117.162Z" fill="#00FFFF" stroke="#00FFFF" stroke-miterlimit="10"/>
<path d="M387.12 137.476C387.12 136.472 386.306 135.658 385.302 135.658C384.298 135.658 383.484 136.472 383.484 137.476C383.484 138.48 384.298 139.294 385.302 139.294C386.306 139.295 387.12 138.48 387.12 137.476Z" fill="#00FFFF" stroke="#00FFFF" stroke-miterlimit="10"/>
<path d="M349.903 187.553C349.903 188.598 349.056 189.444 348.012 189.444C346.968 189.444 346.121 188.597 346.121 187.553C346.121 186.509 346.968 185.662 348.012 185.662C349.056 185.662 349.903 186.509 349.903 187.553Z" fill="#00FFFF" stroke="#00FFFF" stroke-miterlimit="10"/>
<path d="M576.287 230.974C576.287 232.919 574.71 234.496 572.765 234.496C570.82 234.496 569.243 232.919 569.243 230.974C569.243 229.029 570.82 227.452 572.765 227.452C574.71 227.452 576.287 229.029 576.287 230.974Z" fill="#00FFFF" stroke="#00FFFF" stroke-miterlimit="10"/>
<path d="M487.593 101.591L458.668 130.516" stroke="#00FFFF" stroke-miterlimit="10"/>
<path d="M485.174 101.591C485.174 102.927 486.257 104.01 487.593 104.01C488.929 104.01 490.012 102.927 490.012 101.591C490.012 100.255 488.929 99.172 487.593 99.172C486.257 99.172 485.174 100.255 485.174 101.591Z" fill="#00FFFF" stroke="#00FFFF" stroke-miterlimit="10"/>
<path d="M456.743 130.516C456.743 131.579 457.605 132.44 458.667 132.44C459.73 132.44 460.591 131.579 460.591 130.516C460.591 129.453 459.729 128.592 458.667 128.592C457.605 128.592 456.743 129.453 456.743 130.516Z" fill="#00FFFF" stroke="#00FFFF" stroke-miterlimit="10"/>
<path d="M487.593 99.172V94.148L495.97 85.771" stroke="#00FFFF" stroke-miterlimit="10"/>
<path d="M490.012 101.591H495.33L519.086 77.834" stroke="#00FFFF" stroke-miterlimit="10"/>
<path d="M499.982 84.314C499.982 85.621 498.922 86.681 497.615 86.681C496.308 86.681 495.248 85.621 495.248 84.314C495.248 83.007 496.308 81.947 497.615 81.947C498.922 81.948 499.982 83.007 499.982 84.314Z" fill="#00FFFF" stroke="#00FFFF" stroke-miterlimit="10"/>
<path d="M521 78.124C521 79.181 520.143 80.038 519.086 80.038C518.029 80.038 517.172 79.181 517.172 78.124C517.172 77.067 518.029 76.21 519.086 76.21C520.143 76.21 521 77.067 521 78.124Z" fill="#00FFFF" stroke="#00FFFF" stroke-miterlimit="10"/>
<path opacity="0.18" d="M344.569 275.416L335.275 282.878C317.053 260.183 283.765 256.543 261.07 274.765L253.608 265.471C281.427 243.134 322.232 247.596 344.569 275.416Z" fill="#00FFFF"/>
<path opacity="0.18" d="M334.624 366.378C306.804 388.714 265.999 384.253 243.662 356.433L252.956 348.971C271.178 371.666 304.466 375.306 327.161 357.084L334.624 366.378Z" fill="#00FFFF"/>
<path d="M344.201 370.211L334.974 360.211C359.393 337.681 360.931 299.485 338.401 275.066L348.401 265.839C376.019 295.772 374.135 342.593 344.201 370.211Z" fill="#00FFFF"/>
<path d="M239.829 366.01C212.211 336.076 214.096 289.255 244.029 261.637L253.256 271.638C228.837 294.168 227.299 332.364 249.829 356.783L239.829 366.01Z" fill="#00FFFF"/>
<defs>
<radialGradient id="paint0_radial_38_245" cx="0" cy="0" r="1" gradientUnits="userSpaceOnUse" gradientTransform="translate(294.087 315.992) scale(127.834 127.834)">
<stop offset="0.4052" stop-color="white"/>
<stop offset="0.4623" stop-color="#F9FAFA"/>
<stop offset="0.5263" stop-color="#EBEEF0"/>
<stop offset="0.5582" stop-color="#EEF0F2"/>
<stop offset="0.5789" stop-color="#F6F8F9"/>
<stop offset="0.5902" stop-color="white"/>
<stop offset="0.6119" stop-color="#FDFEFE"/>
<stop offset="0.6197" stop-color="#F6F9FA"/>
<stop offset="0.6244" stop-color="#EDF2F5"/>
<stop offset="0.9486" stop-color="#E2E8EB"/>
<stop offset="0.9502" stop-color="#E4EAED"/>
<stop offset="0.9628" stop-color="#F3F6F7"/>
<stop offset="0.9776" stop-color="#FCFDFD"/>
<stop offset="1" stop-color="white"/>
</radialGradient>
<radialGradient id="paint1_radial_38_245" cx="0" cy="0" r="1" gradientUnits="userSpaceOnUse" gradientTransform="translate(294.087 315.992) rotate(45) scale(51.2403)">
<stop offset="0.755" stop-color="white"/>
<stop offset="0.8625" stop-color="#FDFDFD"/>
<stop offset="0.9013" stop-color="#F6F7F8"/>
<stop offset="0.9289" stop-color="#EBEDED"/>
<stop offset="0.9512" stop-color="#DADDDF"/>
<stop offset="0.9703" stop-color="#C4C9CC"/>
<stop offset="0.9869" stop-color="#A9B1B5"/>
<stop offset="1" stop-color="#8E999E"/>
</radialGradient>
<radialGradient id="paint2_radial_38_245" cx="0" cy="0" r="1" gradientUnits="userSpaceOnUse" gradientTransform="translate(294.087 315.992) rotate(45) scale(51.2404)">
<stop offset="0.3947" stop-color="white"/>
<stop offset="0.7271" stop-color="#FDFDFE"/>
<stop offset="0.8468" stop-color="#F6F8F8"/>
<stop offset="0.9319" stop-color="#EBEEF0"/>
<stop offset="1" stop-color="#DAE0E3"/>
</radialGradient>
</defs>
</svg>
