<svg width="312" height="486" viewBox="0 0 312 486" fill="none" xmlns="http://www.w3.org/2000/svg">
<path opacity="0.26" d="M228.829 -145.556H79.829V453.444H228.829V-145.556Z" fill="#00FFFF"/>
<path opacity="0.17" d="M155.035 485.7C228.426 485.7 287.92 476.286 287.92 464.674C287.92 453.062 228.426 443.648 155.035 443.648C81.645 443.648 22.1503 453.062 22.1503 464.674C22.1503 476.286 81.645 485.7 155.035 485.7Z" fill="#00FFFF"/>
<path d="M155.035 485.7C110.8 485.7 71.6133 482.28 47.4593 477.02" stroke="#00FFFF" stroke-width="1.7115" stroke-miterlimit="10" stroke-linecap="round" stroke-linejoin="round"/>
<path d="M197.49 484.604C187.501 485.137 176.981 485.486 166.089 485.628" stroke="#00FFFF" stroke-width="1.7115" stroke-miterlimit="10" stroke-linecap="round" stroke-linejoin="round"/>
<path d="M236.594 481.275C232.681 481.757 228.592 482.205 224.347 482.617" stroke="#00FFFF" stroke-width="1.7115" stroke-miterlimit="10" stroke-linecap="round" stroke-linejoin="round"/>
<path d="M22.1503 464.674C22.1503 459.712 33.0133 455.151 51.1823 451.555" stroke="#00FFFF" stroke-width="1.7115" stroke-miterlimit="10" stroke-linecap="round" stroke-linejoin="round"/>
<path opacity="0.37" d="M155.035 480.125C208.965 480.125 252.683 473.207 252.683 464.674C252.683 456.141 208.965 449.223 155.035 449.223C101.106 449.223 57.3873 456.141 57.3873 464.674C57.3873 473.207 101.106 480.125 155.035 480.125Z" fill="#00FFFF"/>
<path d="M79.2263 474.413C65.5713 471.755 57.3863 468.366 57.3863 464.673" stroke="#00FFFF" stroke-width="1.7115" stroke-miterlimit="10" stroke-linecap="round" stroke-linejoin="round"/>
<path d="M130.496 479.633C122.155 479.291 114.247 478.78 106.927 478.123" stroke="#00FFFF" stroke-width="1.7115" stroke-miterlimit="10" stroke-linecap="round" stroke-linejoin="round"/>
<path d="M155.035 480.125C148.655 480.125 142.418 480.028 136.379 479.843" stroke="#00FFFF" stroke-width="1.7115" stroke-miterlimit="10" stroke-linecap="round" stroke-linejoin="round"/>
<path d="M155.035 449.223C208.965 449.223 252.683 456.14 252.683 464.674" stroke="#00FFFF" stroke-width="1.7115" stroke-miterlimit="10" stroke-linecap="round" stroke-linejoin="round"/>
<path d="M155.035 476.959C197.915 476.959 232.676 471.459 232.676 464.674C232.676 457.889 197.915 452.389 155.035 452.389C112.155 452.389 77.3943 457.889 77.3943 464.674C77.3943 471.459 112.155 476.959 155.035 476.959Z" fill="#00FFFF"/>
<path opacity="0.32" d="M60.7321 380.16H74.0518C76.5579 380.16 78.8723 378.824 80.1247 376.654L86.7852 365.119C88.0376 362.949 88.0376 360.275 86.7852 358.106L80.1247 346.57C78.8723 344.4 76.5566 343.064 74.0518 343.064H60.7321C58.2261 343.064 55.9116 344.4 54.6592 346.57L48 358.106" stroke="#00FFFF" stroke-width="1.7115" stroke-miterlimit="10" stroke-linecap="round" stroke-linejoin="round"/>
<path opacity="0.58" d="M106.353 361.358H93.0333C90.5272 361.358 88.2127 362.694 86.9603 364.864L80.3011 376.399C79.0487 378.569 79.0487 381.243 80.3011 383.413L86.9603 394.948C88.2127 397.118 90.5285 398.454 93.0333 398.454H106.353C108.859 398.454 111.173 397.118 112.426 394.948L119.086 383.413C120.339 381.243 120.339 378.569 119.086 376.399L112.426 364.864C111.173 362.695 108.858 361.358 106.353 361.358Z" stroke="#00FFFF" stroke-width="1.7115" stroke-miterlimit="10" stroke-linecap="round" stroke-linejoin="round"/>
<path opacity="0.35" d="M86.959 327.836L80.2998 339.372C79.0474 341.541 79.0474 344.215 80.2998 346.385L86.959 357.92C88.2114 360.09 90.5272 361.426 93.032 361.426H106.352C108.858 361.426 111.172 360.09 112.425 357.92L119.085 346.385" stroke="#00FFFF" stroke-width="1.7115" stroke-miterlimit="10" stroke-linecap="round" stroke-linejoin="round"/>
<path opacity="0.32" d="M245.388 174.616V161.297C245.388 158.791 244.051 156.476 241.882 155.224L230.346 148.563C228.176 147.311 225.503 147.311 223.333 148.563L211.797 155.224C209.627 156.476 208.291 158.792 208.291 161.297V174.616C208.291 177.121 209.627 179.437 211.797 180.689L223.333 187.35" stroke="#00FFFF" stroke-width="1.7115" stroke-miterlimit="10" stroke-linecap="round" stroke-linejoin="round"/>
<path opacity="0.58" d="M226.586 128.996V142.315C226.586 144.821 227.922 147.136 230.092 148.388L241.628 155.049C243.798 156.301 246.471 156.301 248.641 155.049L260.177 148.388C262.346 147.136 263.682 144.82 263.682 142.315V128.996C263.682 126.491 262.346 124.175 260.177 122.923L248.641 116.263C246.471 115.011 243.798 115.011 241.628 116.263L230.092 122.923C227.922 124.175 226.586 126.491 226.586 128.996Z" stroke="#00FFFF" stroke-width="1.7115" stroke-miterlimit="10" stroke-linecap="round" stroke-linejoin="round"/>
<path opacity="0.35" d="M193.064 148.388L204.6 155.049C206.77 156.301 209.443 156.301 211.613 155.049L223.149 148.388C225.319 147.136 226.655 144.82 226.655 142.315V128.996C226.655 126.491 225.319 124.175 223.149 122.923L211.613 116.264" stroke="#00FFFF" stroke-width="1.7115" stroke-miterlimit="10" stroke-linecap="round" stroke-linejoin="round"/>
<path d="M223.739 322.49C261.291 284.938 261.291 224.054 223.739 186.502C186.187 148.95 125.303 148.95 87.7506 186.502C50.1985 224.054 50.1985 284.938 87.7506 322.49C125.303 360.042 186.187 360.042 223.739 322.49Z" fill="#42BBFF"/>
<mask id="mask0_49_51" style="mask-type:luminance" maskUnits="userSpaceOnUse" x="59" y="158" width="193" height="193">
<path d="M223.739 322.49C261.291 284.938 261.291 224.054 223.739 186.502C186.187 148.95 125.303 148.95 87.7506 186.502C50.1985 224.054 50.1985 284.938 87.7506 322.49C125.303 360.042 186.187 360.042 223.739 322.49Z" fill="white"/>
</mask>
<g mask="url(#mask0_49_51)">
<path d="M109.494 166.298L102.36 186.512C94.2379 209.523 108.036 234.463 131.846 239.809L137.02 240.97C147.312 243.281 153.756 253.529 151.378 263.806C146.478 284.981 159.067 306.273 179.983 312.183L228.49 325.891L246.689 305.358L234.224 270.09C230.019 258.193 220.538 248.917 208.552 244.974L174.768 233.858C164.233 230.392 158.89 218.682 163.175 208.453L164.709 204.792C174.723 180.889 160.161 153.836 134.694 149.031L109.494 166.298Z" fill="#3AFFAA"/>
</g>
<mask id="mask1_49_51" style="mask-type:luminance" maskUnits="userSpaceOnUse" x="59" y="158" width="193" height="193">
<path d="M223.739 322.49C261.291 284.938 261.291 224.054 223.739 186.502C186.187 148.95 125.303 148.95 87.7506 186.502C50.1985 224.054 50.1985 284.938 87.7506 322.49C125.303 360.042 186.187 360.042 223.739 322.49Z" fill="white"/>
</mask>
<g mask="url(#mask1_49_51)">
<path d="M42.8909 281.063L96.2219 284.81C110.255 285.796 120.045 299.144 116.769 312.825L115.093 319.825L127.618 326.088C139.138 331.848 143.591 346.009 137.441 357.326L137.025 358.091L34.8299 316.559L42.8909 281.063Z" fill="#3AFFAA"/>
</g>
<mask id="mask2_49_51" style="mask-type:luminance" maskUnits="userSpaceOnUse" x="59" y="158" width="193" height="193">
<path d="M223.739 322.49C261.291 284.938 261.291 224.054 223.739 186.502C186.187 148.95 125.303 148.95 87.7506 186.502C50.1985 224.054 50.1985 284.938 87.7506 322.49C125.303 360.042 186.187 360.042 223.739 322.49Z" fill="white"/>
</mask>
<g mask="url(#mask2_49_51)">
<path d="M208.89 162.099L203.596 187.684C201.853 196.111 206.988 204.434 215.301 206.656L254.621 217.164C254.621 217.164 226.623 170.498 208.89 162.099Z" fill="#3AFFAA"/>
</g>
<path opacity="0.14" d="M155.747 158.336C102.64 158.336 59.5879 201.388 59.5879 254.495C59.5879 307.602 102.64 350.654 155.747 350.654C208.854 350.654 251.906 307.602 251.906 254.495C251.906 201.388 208.854 158.336 155.747 158.336ZM157.147 265.89C130.632 265.89 109.137 244.395 109.137 217.88C109.137 191.365 130.632 169.87 157.147 169.87C183.662 169.87 205.157 191.365 205.157 217.88C205.157 244.395 183.662 265.89 157.147 265.89Z" fill="#4C00CF"/>
<path opacity="0.24" d="M155.747 158.336C102.64 158.336 59.5879 201.388 59.5879 254.495C59.5879 307.602 102.64 350.654 155.747 350.654C208.854 350.654 251.906 307.602 251.906 254.495C251.906 201.388 208.854 158.336 155.747 158.336ZM157.147 307.598C117.391 307.598 85.1619 275.369 85.1619 235.613C85.1619 195.857 117.391 163.628 157.147 163.628C196.903 163.628 229.132 195.857 229.132 235.613C229.132 275.369 196.903 307.598 157.147 307.598Z" fill="#4C00CF"/>
<path opacity="0.38" d="M224.882 205.51C230.007 212.603 234.082 220.505 236.878 228.989" stroke="white" stroke-width="11.2678" stroke-miterlimit="10" stroke-linecap="round" stroke-linejoin="round"/>
<path opacity="0.38" d="M154.814 169.663C160.778 169.663 166.6 170.267 172.224 171.418C187.946 174.635 202.112 182.123 213.458 192.617" stroke="white" stroke-width="11.2678" stroke-miterlimit="10" stroke-linecap="round" stroke-linejoin="round"/>
<path d="M233.617 332.99C276.624 289.982 276.624 220.253 233.617 177.245C190.609 134.238 120.88 134.238 77.8722 177.245C34.8646 220.253 34.8646 289.982 77.8722 332.99C120.88 375.998 190.609 375.998 233.617 332.99Z" stroke="#00FFFF" stroke-width="1.7115" stroke-miterlimit="10" stroke-linecap="round" stroke-linejoin="round"/>
<path d="M155.747 365.246C194.697 365.246 226.273 315.939 226.273 255.117C226.273 194.294 194.697 144.988 155.747 144.988C116.796 144.988 85.2209 194.294 85.2209 255.117C85.2209 315.939 116.796 365.246 155.747 365.246Z" stroke="#00FFFF" stroke-width="1.7115" stroke-miterlimit="10" stroke-linecap="round" stroke-linejoin="round"/>
<path d="M155.747 365.246C169.447 365.246 180.554 315.939 180.554 255.117C180.554 194.294 169.447 144.988 155.747 144.988C142.046 144.988 130.94 194.294 130.94 255.117C130.94 315.939 142.046 365.246 155.747 365.246Z" stroke="#00FFFF" stroke-width="1.7115" stroke-miterlimit="10" stroke-linecap="round" stroke-linejoin="round"/>
<path d="M155.747 325.643C216.569 325.643 265.876 294.067 265.876 255.117C265.876 216.167 216.569 184.591 155.747 184.591C94.9243 184.591 45.6179 216.167 45.6179 255.117C45.6179 294.067 94.9243 325.643 155.747 325.643Z" stroke="#00FFFF" stroke-width="1.7115" stroke-miterlimit="10" stroke-linecap="round" stroke-linejoin="round"/>
<path d="M155.747 279.924C216.569 279.924 265.876 268.817 265.876 255.117C265.876 241.416 216.569 230.31 155.747 230.31C94.9243 230.31 45.6179 241.416 45.6179 255.117C45.6179 268.817 94.9243 279.924 155.747 279.924Z" stroke="#00FFFF" stroke-width="1.7115" stroke-miterlimit="10" stroke-linecap="round" stroke-linejoin="round"/>
<path d="M25.2868 296.73C25.9628 299.018 27.7518 300.808 30.0408 301.484C30.4758 301.612 30.4758 302.228 30.0408 302.356C27.7528 303.032 25.9628 304.822 25.2868 307.11C25.1588 307.545 24.5428 307.545 24.4148 307.11C23.7388 304.822 21.9488 303.032 19.6608 302.356C19.2258 302.228 19.2258 301.612 19.6608 301.484C21.9488 300.808 23.7388 299.018 24.4148 296.73C24.5428 296.296 25.1588 296.296 25.2868 296.73Z" fill="#3AFFAA"/>
<path d="M42.8738 319.021C43.3418 320.604 44.5798 321.843 46.1638 322.311C46.4648 322.4 46.4648 322.826 46.1638 322.915C44.5798 323.383 43.3418 324.621 42.8738 326.205C42.7848 326.506 42.3588 326.506 42.2698 326.205C41.8018 324.621 40.5638 323.383 38.9798 322.915C38.6788 322.826 38.6788 322.4 38.9798 322.311C40.5628 321.843 41.8018 320.605 42.2698 319.021C42.3588 318.72 42.7848 318.72 42.8738 319.021Z" fill="#3AFFAA"/>
<path d="M18.2858 321.253C18.7728 322.901 20.0608 324.189 21.7088 324.676C22.0218 324.768 22.0218 325.212 21.7088 325.304C20.0608 325.791 18.7728 327.079 18.2858 328.727C18.1938 329.04 17.7498 329.04 17.6578 328.727C17.1708 327.079 15.8828 325.791 14.2348 325.304C13.9218 325.212 13.9218 324.768 14.2348 324.676C15.8828 324.189 17.1708 322.901 17.6578 321.253C17.7498 320.94 18.1928 320.94 18.2858 321.253Z" fill="#3AFFAA"/>
<path d="M268.547 215.647C269.015 217.231 270.253 218.469 271.837 218.937C272.138 219.026 272.138 219.452 271.837 219.541C270.254 220.009 269.015 221.247 268.547 222.831C268.458 223.132 268.032 223.132 267.943 222.831C267.475 221.247 266.237 220.009 264.653 219.541C264.352 219.452 264.352 219.026 264.653 218.937C266.236 218.469 267.475 217.231 267.943 215.647C268.032 215.346 268.458 215.346 268.547 215.647Z" fill="#3AFFAA"/>
<path d="M26.8578 227.25C27.2878 228.707 28.4268 229.846 29.8838 230.276C30.1608 230.358 30.1608 230.749 29.8838 230.831C28.4278 231.261 27.2878 232.4 26.8578 233.857C26.7758 234.134 26.3838 234.134 26.3028 233.857C25.8728 232.4 24.7338 231.261 23.2768 230.831C22.9998 230.749 22.9998 230.357 23.2768 230.276C24.7328 229.846 25.8728 228.707 26.3028 227.25C26.3838 226.974 26.7758 226.974 26.8578 227.25Z" fill="#3AFFAA"/>
<path d="M255.566 205.653C255.996 207.109 257.135 208.249 258.592 208.679C258.869 208.761 258.869 209.153 258.592 209.234C257.136 209.664 255.996 210.803 255.566 212.26C255.484 212.537 255.092 212.537 255.011 212.26C254.581 210.804 253.442 209.664 251.985 209.234C251.708 209.152 251.708 208.76 251.985 208.679C253.442 208.249 254.581 207.11 255.011 205.653C255.093 205.376 255.485 205.376 255.566 205.653Z" fill="#3AFFAA"/>
<path d="M86.2438 135.107C87.0148 137.717 89.0558 139.758 91.6648 140.528C92.1608 140.674 92.1608 141.377 91.6648 141.523C89.0558 142.294 87.0148 144.335 86.2438 146.944C86.0978 147.44 85.3948 147.44 85.2488 146.944C84.4778 144.334 82.4368 142.293 79.8278 141.523C79.3318 141.377 79.3318 140.675 79.8278 140.528C82.4378 139.757 84.4788 137.716 85.2488 135.107C85.3948 134.612 86.0978 134.612 86.2438 135.107Z" fill="#3AFFAA"/>
<path d="M73.2708 152.308C73.8028 154.111 75.2128 155.521 77.0158 156.053C77.3578 156.154 77.3578 156.639 77.0158 156.74C75.2128 157.272 73.8028 158.682 73.2708 160.485C73.1698 160.827 72.6848 160.827 72.5838 160.485C72.0518 158.682 70.6418 157.272 68.8388 156.74C68.4968 156.639 68.4968 156.154 68.8388 156.053C70.6418 155.521 72.0518 154.111 72.5838 152.308C72.6848 151.966 73.1698 151.966 73.2708 152.308Z" fill="#3AFFAA"/>
<path d="M247.75 322.904C248.237 324.552 249.525 325.84 251.173 326.327C251.486 326.419 251.486 326.863 251.173 326.955C249.525 327.442 248.237 328.73 247.75 330.378C247.658 330.691 247.214 330.691 247.122 330.378C246.635 328.73 245.347 327.442 243.699 326.955C243.386 326.863 243.386 326.419 243.699 326.327C245.347 325.84 246.635 324.552 247.122 322.904C247.215 322.591 247.658 322.591 247.75 322.904Z" fill="#3AFFAA"/>
<path d="M227.352 341.085C227.839 342.733 229.127 344.021 230.775 344.508C231.088 344.6 231.088 345.044 230.775 345.136C229.127 345.622 227.839 346.911 227.352 348.559C227.26 348.872 226.816 348.872 226.724 348.559C226.237 346.911 224.949 345.623 223.301 345.136C222.988 345.044 222.988 344.6 223.301 344.508C224.949 344.022 226.237 342.733 226.724 341.085C226.817 340.772 227.26 340.772 227.352 341.085Z" fill="#3AFFAA"/>
<path d="M245.391 340.939C245.878 342.587 247.166 343.875 248.814 344.362C249.127 344.454 249.127 344.898 248.814 344.99C247.167 345.477 245.878 346.765 245.391 348.413C245.299 348.726 244.855 348.726 244.763 348.413C244.276 346.765 242.988 345.477 241.34 344.99C241.027 344.898 241.027 344.454 241.34 344.362C242.988 343.875 244.276 342.587 244.763 340.939C244.856 340.627 245.299 340.627 245.391 340.939Z" fill="#3AFFAA"/>
<path opacity="0.46" d="M241.38 302.841H277.947C283.754 302.841 288.505 298.09 288.505 292.283V235.108C288.505 229.301 283.754 224.55 277.947 224.55H241.38C235.573 224.55 230.822 229.301 230.822 235.108V292.283C230.822 298.09 235.573 302.841 241.38 302.841Z" fill="#3AFFAA"/>
<path opacity="0.46" d="M250.705 312.167H287.273C293.08 312.167 297.831 307.416 297.831 301.609V244.434C297.831 238.627 293.08 233.876 287.273 233.876H250.705C244.898 233.876 240.147 238.627 240.147 244.434V301.609C240.147 307.416 244.898 312.167 250.705 312.167Z" stroke="#3AFFAA" stroke-width="1.7115" stroke-miterlimit="10"/>
<path opacity="0.49" d="M257.15 247.013V300.248C257.15 301.251 256.337 302.064 255.334 302.064C254.331 302.064 253.518 301.251 253.518 300.248V247.013C253.518 246.01 254.331 245.197 255.334 245.197C256.337 245.197 257.15 246.01 257.15 247.013Z" fill="#5B00B6"/>
<path opacity="0.49" d="M267.786 247.013V300.248C267.786 301.251 266.973 302.064 265.97 302.064C264.967 302.064 264.154 301.251 264.154 300.248V247.013C264.154 246.01 264.967 245.197 265.97 245.197C266.973 245.197 267.786 246.01 267.786 247.013Z" fill="#5B00B6"/>
<path opacity="0.49" d="M277.125 247.013V300.248C277.125 301.251 276.312 302.064 275.309 302.064C274.306 302.064 273.493 301.251 273.493 300.248V247.013C273.493 246.01 274.306 245.197 275.309 245.197C276.312 245.197 277.125 246.01 277.125 247.013Z" fill="#5B00B6"/>
<path d="M277.125 260.672V272.581C277.125 273.584 276.312 274.397 275.309 274.397C274.306 274.397 273.493 273.584 273.493 272.581V260.672C273.493 259.669 274.306 258.856 275.309 258.856C276.312 258.855 277.125 259.669 277.125 260.672Z" fill="#3AFFAA"/>
<path d="M267.786 271.178V283.087C267.786 284.09 266.973 284.903 265.97 284.903C264.967 284.903 264.154 284.09 264.154 283.087V271.178C264.154 270.175 264.967 269.362 265.97 269.362C266.973 269.362 267.786 270.175 267.786 271.178Z" fill="#00FFFF"/>
<path opacity="0.49" d="M286.568 247.013V300.248C286.568 301.251 285.755 302.064 284.752 302.064C283.749 302.064 282.936 301.251 282.936 300.248V247.013C282.936 246.01 283.749 245.197 284.752 245.197C285.755 245.197 286.568 246.01 286.568 247.013Z" fill="#5B00B6"/>
<path d="M286.568 271.178V283.087C286.568 284.09 285.755 284.903 284.752 284.903C283.749 284.903 282.936 284.09 282.936 283.087V271.178C282.936 270.175 283.749 269.362 284.752 269.362C285.755 269.362 286.568 270.175 286.568 271.178Z" fill="#00FFFF"/>
<path d="M257.15 262.098V274.007C257.15 275.01 256.337 275.823 255.334 275.823C254.331 275.823 253.518 275.01 253.518 274.007V262.098C253.518 261.095 254.331 260.282 255.334 260.282C256.337 260.282 257.15 261.095 257.15 262.098Z" fill="#3AFFAA"/>
<path opacity="0.4" d="M103.586 278.67C106.122 262.902 95.3954 248.063 79.6273 245.527C63.8592 242.991 49.0206 253.717 46.4844 269.486C43.9482 285.254 54.6748 300.092 70.4429 302.628C86.2111 305.165 101.05 294.438 103.586 278.67Z" stroke="#00FFFF" stroke-width="1.7115" stroke-miterlimit="10" stroke-linecap="round" stroke-linejoin="round"/>
<path d="M46.1138 274.067C46.1138 258.096 59.0608 245.149 75.0318 245.149" stroke="#00FFFF" stroke-width="1.7115" stroke-miterlimit="10" stroke-linecap="round" stroke-linejoin="round"/>
<path d="M98.9175 277.913C101.042 264.724 92.0716 252.311 78.8826 250.187C65.6936 248.063 53.2799 257.032 51.1559 270.221C49.0319 283.41 58.0018 295.824 71.1908 297.948C84.3798 300.072 96.7935 291.102 98.9175 277.913Z" stroke="#00FFFF" stroke-width="1.7115" stroke-miterlimit="10" stroke-linecap="round" stroke-linejoin="round"/>
<path d="M75.0318 249.88C88.3908 249.88 99.2198 260.709 99.2198 274.068" stroke="#00FFFF" stroke-width="1.7115" stroke-miterlimit="10" stroke-linecap="round" stroke-linejoin="round"/>
<path opacity="0.44" d="M95.3419 277.456C97.2085 266.236 89.6259 255.627 78.4058 253.76C67.1856 251.893 56.5767 259.476 54.7101 270.696C52.8435 281.916 60.426 292.525 71.6462 294.392C82.8663 296.258 93.4753 288.676 95.3419 277.456Z" fill="#00FFFF"/>
<path d="M57.2178 274.067C57.2178 264.228 65.1938 256.253 75.0318 256.253" stroke="#00FFFF" stroke-width="1.7115" stroke-miterlimit="10" stroke-linecap="round" stroke-linejoin="round"/>
<path d="M92.8468 274.067C92.8468 283.906 84.8708 291.881 75.0328 291.881" stroke="#00FFFF" stroke-width="1.7115" stroke-miterlimit="10" stroke-linecap="round" stroke-linejoin="round"/>
<path d="M83.2388 275.393C83.9715 270.867 80.8961 266.603 76.3697 265.87C71.8434 265.138 67.58 268.213 66.8474 272.74C66.1147 277.266 69.19 281.529 73.7164 282.262C78.2428 282.995 82.5061 279.919 83.2388 275.393Z" fill="#00FFFF"/>
<path d="M80.1608 274.067C80.1608 276.9 77.8648 279.196 75.0318 279.196C72.1988 279.196 69.9028 276.9 69.9028 274.067C69.9028 271.234 72.1988 268.938 75.0318 268.938C77.8648 268.939 80.1608 271.235 80.1608 274.067Z" fill="#FF65FF"/>
<path opacity="0.4" d="M205.92 225.911C221.348 225.911 233.856 213.404 233.856 197.975C233.856 182.546 221.348 170.039 205.92 170.039C190.491 170.039 177.984 182.546 177.984 197.975C177.984 213.404 190.491 225.911 205.92 225.911Z" stroke="#00FFFF" stroke-width="1.7115" stroke-miterlimit="10" stroke-linecap="round" stroke-linejoin="round"/>
<path d="M177.984 197.975C177.984 182.547 190.491 170.039 205.92 170.039" stroke="#00FFFF" stroke-width="1.7115" stroke-miterlimit="10" stroke-linecap="round" stroke-linejoin="round"/>
<path d="M205.92 221.341C218.824 221.341 229.286 210.88 229.286 197.975C229.286 185.07 218.824 174.609 205.92 174.609C193.015 174.609 182.554 185.07 182.554 197.975C182.554 210.88 193.015 221.341 205.92 221.341Z" stroke="#00FFFF" stroke-width="1.7115" stroke-miterlimit="10" stroke-linecap="round" stroke-linejoin="round"/>
<path d="M205.92 174.609C218.824 174.609 229.286 185.07 229.286 197.975" stroke="#00FFFF" stroke-width="1.7115" stroke-miterlimit="10" stroke-linecap="round" stroke-linejoin="round"/>
<path opacity="0.44" d="M205.92 217.871C216.908 217.871 225.816 208.963 225.816 197.975C225.816 186.987 216.908 178.079 205.92 178.079C194.931 178.079 186.024 186.987 186.024 197.975C186.024 208.963 194.931 217.871 205.92 217.871Z" fill="#00FFFF"/>
<path d="M188.711 197.975C188.711 188.471 196.416 180.766 205.92 180.766" stroke="#00FFFF" stroke-width="1.7115" stroke-miterlimit="10" stroke-linecap="round" stroke-linejoin="round"/>
<path d="M223.129 197.975C223.129 207.479 215.424 215.184 205.92 215.184" stroke="#00FFFF" stroke-width="1.7115" stroke-miterlimit="10" stroke-linecap="round" stroke-linejoin="round"/>
<path d="M215.403 199.987C216.518 194.747 213.174 189.595 207.934 188.479C202.694 187.364 197.541 190.708 196.426 195.948C195.31 201.188 198.654 206.341 203.895 207.456C209.135 208.572 214.287 205.228 215.403 199.987Z" fill="#00FFFF"/>
<path d="M211.914 197.975C211.914 201.285 209.231 203.969 205.92 203.969C202.61 203.969 199.926 201.286 199.926 197.975C199.926 194.665 202.61 191.981 205.92 191.981C209.23 191.982 211.914 194.665 211.914 197.975Z" fill="#FF65FF"/>
<path opacity="0.46" d="M16.8998 201.839V178.659C16.8998 174.452 20.3418 171.009 24.5488 171.009H86.7558C90.9628 171.009 94.4048 174.451 94.4048 178.659V201.838C94.4048 206.045 90.9628 209.487 86.7558 209.487H24.5488C20.3418 209.488 16.8998 206.046 16.8998 201.839Z" fill="#3AFFAA"/>
<path opacity="0.49" d="M23.8368 183.694V180.176C23.8368 178.148 25.4808 176.503 27.5098 176.503H31.0278C33.0558 176.503 34.7008 178.148 34.7008 180.176V183.694C34.7008 185.723 33.0558 187.367 31.0278 187.367H27.5098C25.4818 187.367 23.8368 185.722 23.8368 183.694Z" fill="#9005E7"/>
<path opacity="0.84" d="M23.8368 199.154V195.636C23.8368 193.607 25.4808 191.963 27.5098 191.963H31.0278C33.0558 191.963 34.7008 193.607 34.7008 195.636V199.154C34.7008 201.183 33.0558 202.827 31.0278 202.827H27.5098C25.4818 202.827 23.8368 201.182 23.8368 199.154Z" fill="#9005E7"/>
<path d="M40.9688 183.694V180.176C40.9688 178.148 42.6138 176.503 44.6418 176.503H48.1598C50.1888 176.503 51.8328 178.148 51.8328 180.176V183.694C51.8328 185.723 50.1888 187.367 48.1598 187.367H44.6418C42.6128 187.367 40.9688 185.722 40.9688 183.694Z" fill="#FF65FF"/>
<path d="M40.9688 183.694V180.176C40.9688 178.148 42.6138 176.503 44.6418 176.503H48.1598C50.1888 176.503 51.8328 178.148 51.8328 180.176V183.694C51.8328 185.723 50.1888 187.367 48.1598 187.367H44.6418C42.6128 187.367 40.9688 185.722 40.9688 183.694Z" fill="#00FFFF"/>
<path d="M40.9688 199.154V195.636C40.9688 193.607 42.6138 191.963 44.6418 191.963H48.1598C50.1888 191.963 51.8328 193.607 51.8328 195.636V199.154C51.8328 201.183 50.1888 202.827 48.1598 202.827H44.6418C42.6128 202.827 40.9688 201.182 40.9688 199.154Z" fill="#3AFFAA"/>
<path opacity="0.84" d="M58.0998 183.694V180.176C58.0998 178.148 59.7438 176.503 61.7728 176.503H65.2908C67.3188 176.503 68.9638 178.148 68.9638 180.176V183.694C68.9638 185.723 67.3188 187.367 65.2908 187.367H61.7728C59.7438 187.367 58.0998 185.722 58.0998 183.694Z" fill="#9005E7"/>
<path opacity="0.49" d="M58.0998 199.154V195.636C58.0998 193.607 59.7438 191.963 61.7728 191.963H65.2908C67.3188 191.963 68.9638 193.607 68.9638 195.636V199.154C68.9638 201.183 67.3188 202.827 65.2908 202.827H61.7728C59.7438 202.827 58.0998 201.182 58.0998 199.154Z" fill="#9005E7"/>
<path opacity="0.49" d="M75.2318 183.694V180.176C75.2318 178.148 76.8758 176.503 78.9048 176.503H82.4228C84.4518 176.503 86.0958 178.148 86.0958 180.176V183.694C86.0958 185.723 84.4518 187.367 82.4228 187.367H78.9048C76.8758 187.367 75.2318 185.722 75.2318 183.694Z" fill="#9005E7"/>
<path d="M75.2318 199.154V195.636C75.2318 193.607 76.8758 191.963 78.9048 191.963H82.4228C84.4518 191.963 86.0958 193.607 86.0958 195.636V199.154C86.0958 201.183 84.4518 202.827 82.4228 202.827H78.9048C76.8758 202.827 75.2318 201.182 75.2318 199.154Z" fill="#00FFFF"/>
</svg>
